<svg version="1.1" id="Layer_1" xmlns="http://www.w3.org/2000/svg" xmlns:xlink="http://www.w3.org/1999/xlink" x="0px" y="0px"
	 width="100%" viewBox="0 0 256 245" enable-background="new 0 0 256 245" xml:space="preserve">
<path fill="#000000" opacity="1.000000" stroke="none" 
	d="
M147.000000,246.000000 
	C98.000000,246.000000 49.500008,246.000000 1.000006,246.000000 
	C1.000004,164.333344 1.000004,82.666679 1.000002,1.000018 
	C86.333321,1.000012 171.666641,1.000012 257.000000,1.000006 
	C257.000000,82.666649 257.000000,164.333298 257.000000,245.999969 
	C220.500000,246.000000 184.000000,246.000000 147.000000,246.000000 
M205.207031,11.052840 
	C200.697586,10.368468 196.190231,9.106199 191.678345,9.089757 
	C149.858521,8.937361 108.036705,8.817845 66.218155,9.095260 
	C50.941002,9.196604 37.652733,15.777270 27.401144,26.557621 
	C16.475855,38.046421 10.788071,52.264172 10.915126,68.677643 
	C11.189824,104.164528 11.097309,139.655396 10.960159,175.143875 
	C10.887280,194.001846 17.538523,209.715164 31.219711,222.748596 
	C41.867100,232.891861 54.553844,237.697662 68.908577,237.796829 
	C107.891525,238.066116 146.879517,237.718185 185.860428,238.114929 
	C202.164871,238.280869 216.410248,233.756470 228.443436,222.840622 
	C236.703415,215.347641 242.756973,206.021317 245.668640,195.392532 
	C247.677048,188.061020 247.853653,180.081696 247.905502,172.385529 
	C248.127747,139.397232 248.150696,106.405388 247.885620,73.417732 
	C247.825623,65.952332 247.208588,58.259392 245.276978,51.094730 
	C242.284546,39.995312 237.067215,29.635965 227.197723,22.934511 
	C220.534698,18.410265 213.119003,14.994515 205.207031,11.052840 
z"/>
<path fill="#E9454F" opacity="1.000000" stroke="none" 
	d="
M205.623505,11.067883 
	C213.119003,14.994515 220.534698,18.410265 227.197723,22.934511 
	C237.067215,29.635965 242.284546,39.995312 245.276978,51.094730 
	C247.208588,58.259392 247.825623,65.952332 247.885620,73.417732 
	C248.150696,106.405388 248.127747,139.397232 247.905502,172.385529 
	C247.853653,180.081696 247.677048,188.061020 245.668640,195.392532 
	C242.756973,206.021317 236.703415,215.347641 228.443436,222.840622 
	C216.410248,233.756470 202.164871,238.280869 185.860428,238.114929 
	C146.879517,237.718185 107.891525,238.066116 68.908577,237.796829 
	C54.553844,237.697662 41.867100,232.891861 31.219711,222.748596 
	C17.538523,209.715164 10.887280,194.001846 10.960159,175.143875 
	C11.097309,139.655396 11.189824,104.164528 10.915126,68.677643 
	C10.788071,52.264172 16.475855,38.046421 27.401144,26.557621 
	C37.652733,15.777270 50.941002,9.196604 66.218155,9.095260 
	C108.036705,8.817845 149.858521,8.937361 191.678345,9.089757 
	C196.190231,9.106199 200.697586,10.368468 205.623505,11.067883 
M155.500366,93.991096 
	C152.505600,93.991096 149.510849,93.991096 146.516083,93.991096 
	C129.853149,93.991112 127.923798,95.935600 127.991318,112.661171 
	C128.029114,122.020844 131.983536,125.996666 141.345581,126.003883 
	C161.643219,126.019539 181.940872,126.008850 202.238525,126.008881 
	C219.249023,126.008904 221.100632,124.143677 221.008606,107.100838 
	C220.959991,98.099953 216.906082,94.010719 207.909821,93.998253 
	C190.773331,93.974510 173.636749,93.991196 155.500366,93.991096 
M183.500000,213.008896 
	C190.154984,213.008896 196.825363,212.717224 203.461853,213.067490 
	C218.955963,213.885208 222.785889,209.690704 222.081619,194.370193 
	C221.651810,185.020142 218.016251,181.004776 208.683441,180.996674 
	C188.552200,180.979187 168.410782,181.386047 148.292755,180.870239 
	C131.194366,180.431854 128.249847,184.571960 128.942245,200.387115 
	C129.307739,208.735382 133.240280,212.971725 141.572006,212.997116 
	C155.214554,213.038681 168.857330,213.008698 183.500000,213.008896 
M105.499634,169.008896 
	C108.494354,169.008896 111.498550,168.853241 114.482201,169.035004 
	C129.925522,169.975815 133.790237,165.717316 133.081558,150.351334 
	C132.650650,141.007843 129.015381,137.004379 119.664536,136.996552 
	C99.366890,136.979553 79.069221,136.991165 58.771561,136.991119 
	C41.781506,136.991089 39.896133,138.889893 39.991394,155.904831 
	C40.041809,164.909454 44.091419,168.990555 53.090141,169.002213 
	C70.226662,169.024399 87.363235,169.008789 105.499634,169.008896 
M131.008896,67.464500 
	C131.007523,53.803673 128.236740,50.991341 114.777313,50.991158 
	C95.472595,50.990894 76.157585,51.380592 56.866341,50.870701 
	C40.763130,50.445072 37.231770,54.412910 37.925373,69.825256 
	C38.332653,78.875275 42.053493,82.992188 51.013496,83.001358 
	C72.814491,83.023659 94.615532,83.010727 116.416550,83.008072 
	C127.499855,83.006721 130.983826,79.515251 131.008896,67.464500 
z"/>
<path fill="#FCFCFC" opacity="1.000000" stroke="none" 
	d="
M156.000290,93.991096 
	C173.636749,93.991196 190.773331,93.974510 207.909821,93.998253 
	C216.906082,94.010719 220.959991,98.099953 221.008606,107.100838 
	C221.100632,124.143677 219.249023,126.008904 202.238525,126.008881 
	C181.940872,126.008850 161.643219,126.019539 141.345581,126.003883 
	C131.983536,125.996666 128.029114,122.020844 127.991318,112.661171 
	C127.923798,95.935600 129.853149,93.991112 146.516083,93.991096 
	C149.510849,93.991096 152.505600,93.991096 156.000290,93.991096 
M161.002625,113.008232 
	C161.002625,113.008232 160.975006,112.987679 161.247284,113.623215 
	C162.670822,114.058762 164.094345,114.494316 164.874710,114.733078 
	C163.848480,111.429443 163.011230,108.734177 162.173996,106.038910 
	C162.649765,106.617943 163.125549,107.196976 163.601318,107.776001 
	C161.400360,109.902649 159.199402,112.029297 156.998444,114.155945 
	C156.408401,113.564056 155.818359,112.972168 155.228302,112.380280 
	C155.023239,109.824562 154.818176,107.268845 154.491043,103.191628 
	C150.631821,107.239250 151.834335,110.903938 152.306564,114.974846 
	C155.386795,114.289223 158.206497,113.661591 161.002625,113.008232 
M157.813431,108.345093 
	C157.991089,108.199440 158.168732,108.053787 158.346375,107.908134 
	C158.258896,107.813011 158.171402,107.717880 158.083923,107.622749 
	C157.925613,107.789696 157.767303,107.956635 157.813431,108.345093 
z"/>
<path fill="#FCFCFC" opacity="1.000000" stroke="none" 
	d="
M183.000000,213.008896 
	C168.857330,213.008698 155.214554,213.038681 141.572006,212.997116 
	C133.240280,212.971725 129.307739,208.735382 128.942245,200.387115 
	C128.249847,184.571960 131.194366,180.431854 148.292755,180.870239 
	C168.410782,181.386047 188.552200,180.979187 208.683441,180.996674 
	C218.016251,181.004776 221.651810,185.020142 222.081619,194.370193 
	C222.785889,209.690704 218.955963,213.885208 203.461853,213.067490 
	C196.825363,212.717224 190.154984,213.008896 183.000000,213.008896 
M162.002625,200.008240 
	C162.002625,200.008240 161.975006,199.987717 162.247284,200.623245 
	C163.670837,201.058777 165.094391,201.494308 165.874741,201.733047 
	C164.848511,198.429428 164.011261,195.734161 163.174011,193.038895 
	C163.649826,193.617966 164.125626,194.197037 164.601440,194.776093 
	C162.400452,196.902710 160.199448,199.029312 157.998459,201.155930 
	C157.408417,200.564056 156.818375,199.972183 156.228333,199.380310 
	C156.023254,196.824585 155.818161,194.268860 155.556274,191.005096 
	C150.918945,194.082703 153.371460,198.021912 153.066315,202.028305 
	C156.386795,201.289215 159.206497,200.661591 162.002625,200.008240 
M158.652893,194.817871 
	C158.798599,194.995224 158.944305,195.172562 159.090012,195.349915 
	C159.185165,195.262466 159.280319,195.175034 159.375473,195.087601 
	C159.208481,194.929611 159.041473,194.771606 158.652893,194.817871 
z"/>
<path fill="#FCFCFC" opacity="1.000000" stroke="none" 
	d="
M104.999710,169.008896 
	C87.363235,169.008789 70.226662,169.024399 53.090141,169.002213 
	C44.091419,168.990555 40.041809,164.909454 39.991394,155.904831 
	C39.896133,138.889893 41.781506,136.991089 58.771561,136.991119 
	C79.069221,136.991165 99.366890,136.979553 119.664536,136.996552 
	C129.015381,137.004379 132.650650,141.007843 133.081558,150.351334 
	C133.790237,165.717316 129.925522,169.975815 114.482201,169.035004 
	C111.498550,168.853241 108.494354,169.008896 104.999710,169.008896 
M73.002647,156.008224 
	C73.002647,156.008224 72.975029,155.987701 73.247299,156.623245 
	C74.670837,157.058777 76.094376,157.494324 76.874718,157.733063 
	C75.842964,154.411621 75.010063,151.730316 74.177155,149.049011 
	C74.651871,149.624649 75.126587,150.200302 75.601303,150.775955 
	C73.400360,152.902618 71.199417,155.029282 68.998466,157.155945 
	C68.408424,156.564072 67.818382,155.972183 67.228333,155.380295 
	C67.023262,152.824585 66.818184,150.268875 66.556122,147.002930 
	C61.929367,150.084976 64.363281,154.020126 64.072014,158.027084 
	C67.386787,157.289246 70.206490,156.661606 73.002647,156.008224 
M69.813469,151.345062 
	C69.991112,151.199417 70.168747,151.053757 70.346390,150.908112 
	C70.258904,150.812988 70.171417,150.717850 70.083939,150.622726 
	C69.925629,150.789673 69.767326,150.956604 69.813469,151.345062 
z"/>
<path fill="#FCFCFC" opacity="1.000000" stroke="none" 
	d="
M131.008881,67.932831 
	C130.983826,79.515251 127.499855,83.006721 116.416550,83.008072 
	C94.615532,83.010727 72.814491,83.023659 51.013496,83.001358 
	C42.053493,82.992188 38.332653,78.875275 37.925373,69.825256 
	C37.231770,54.412910 40.763130,50.445072 56.866341,50.870701 
	C76.157585,51.380592 95.472595,50.990894 114.777313,50.991158 
	C128.236740,50.991341 131.007523,53.803673 131.008881,67.932831 
M71.002647,70.008224 
	C71.002647,70.008224 70.975037,69.987671 71.247299,70.623215 
	C72.670837,71.058762 74.094368,71.494316 74.874748,71.733086 
	C73.848526,68.429459 73.011276,65.734184 72.174034,63.038914 
	C72.649788,63.617935 73.125534,64.196953 73.601288,64.775970 
	C71.400345,66.902626 69.199402,69.029274 66.998459,71.155930 
	C66.408417,70.564041 65.818367,69.972153 65.228317,69.380272 
	C65.023239,66.824554 64.818161,64.268845 64.490822,60.189552 
	C60.631767,64.239258 61.837029,67.904533 62.303139,71.975609 
	C65.386803,71.289223 68.206505,70.661583 71.002647,70.008224 
M68.340912,65.184067 
	C68.195251,65.006584 68.049599,64.829102 67.903938,64.651619 
	C67.808693,64.739029 67.713448,64.826439 67.618202,64.913849 
	C67.785164,65.071960 67.952126,65.230080 68.340912,65.184067 
z"/>
<path fill="#D9D9D9" opacity="1.000000" stroke="none" 
	d="
M161.026199,113.033951 
	C158.206497,113.661591 155.386795,114.289223 152.306564,114.974846 
	C151.834335,110.903938 150.631821,107.239250 154.491043,103.191628 
	C154.818176,107.268845 155.023239,109.824562 155.228302,112.380280 
	C155.818359,112.972168 156.408401,113.564056 156.998444,114.155945 
	C159.199402,112.029297 161.400360,109.902649 163.601318,107.776001 
	C163.125549,107.196976 162.649765,106.617943 162.173996,106.038910 
	C163.011230,108.734177 163.848480,111.429443 164.874710,114.733078 
	C164.094345,114.494316 162.670822,114.058762 161.152802,113.277657 
	C161.058319,112.932098 161.026199,113.033951 161.026199,113.033951 
z"/>
<path fill="#F4F4F4" opacity="1.000000" stroke="none" 
	d="
M157.711212,108.234329 
	C157.767303,107.956635 157.925613,107.789696 158.083923,107.622757 
	C158.171402,107.717880 158.258896,107.813011 158.346375,107.908142 
	C158.168732,108.053787 157.991089,108.199440 157.711212,108.234329 
z"/>
<path fill="#D9D9D9" opacity="1.000000" stroke="none" 
	d="
M162.026199,200.033966 
	C159.206497,200.661591 156.386795,201.289215 153.066315,202.028305 
	C153.371460,198.021912 150.918945,194.082703 155.556274,191.005096 
	C155.818161,194.268860 156.023254,196.824585 156.228333,199.380310 
	C156.818375,199.972183 157.408417,200.564056 157.998459,201.155930 
	C160.199448,199.029312 162.400452,196.902710 164.601440,194.776093 
	C164.125626,194.197037 163.649826,193.617966 163.174011,193.038895 
	C164.011261,195.734161 164.848511,198.429428 165.874741,201.733047 
	C165.094391,201.494308 163.670837,201.058777 162.152802,200.277679 
	C162.058334,199.932114 162.026199,200.033966 162.026199,200.033966 
z"/>
<path fill="#F4F4F4" opacity="1.000000" stroke="none" 
	d="
M158.763687,194.715744 
	C159.041473,194.771606 159.208481,194.929611 159.375473,195.087601 
	C159.280319,195.175034 159.185165,195.262466 159.090012,195.349915 
	C158.944305,195.172562 158.798599,194.995224 158.763687,194.715744 
z"/>
<path fill="#D9D9D9" opacity="1.000000" stroke="none" 
	d="
M73.026192,156.033966 
	C70.206490,156.661606 67.386787,157.289246 64.072014,158.027084 
	C64.363281,154.020126 61.929367,150.084976 66.556122,147.002930 
	C66.818184,150.268875 67.023262,152.824585 67.228333,155.380295 
	C67.818382,155.972183 68.408424,156.564072 68.998466,157.155945 
	C71.199417,155.029282 73.400360,152.902618 75.601303,150.775955 
	C75.126587,150.200302 74.651871,149.624649 74.177155,149.049011 
	C75.010063,151.730316 75.842964,154.411621 76.874718,157.733063 
	C76.094376,157.494324 74.670837,157.058777 73.152817,156.277679 
	C73.058342,155.932098 73.026192,156.033951 73.026192,156.033966 
z"/>
<path fill="#F4F4F4" opacity="1.000000" stroke="none" 
	d="
M69.711243,151.234314 
	C69.767326,150.956604 69.925629,150.789673 70.083939,150.622726 
	C70.171417,150.717850 70.258904,150.812988 70.346390,150.908112 
	C70.168747,151.053757 69.991112,151.199417 69.711243,151.234314 
z"/>
<path fill="#D9D9D9" opacity="1.000000" stroke="none" 
	d="
M71.026207,70.033951 
	C68.206505,70.661583 65.386803,71.289223 62.303139,71.975609 
	C61.837029,67.904533 60.631767,64.239258 64.490822,60.189552 
	C64.818161,64.268845 65.023239,66.824554 65.228317,69.380272 
	C65.818367,69.972153 66.408417,70.564041 66.998459,71.155930 
	C69.199402,69.029274 71.400345,66.902626 73.601288,64.775970 
	C73.125534,64.196953 72.649788,63.617935 72.174034,63.038914 
	C73.011276,65.734184 73.848526,68.429459 74.874748,71.733086 
	C74.094368,71.494316 72.670837,71.058762 71.152817,70.277649 
	C71.058342,69.932083 71.026207,70.033951 71.026207,70.033951 
z"/>
<path fill="#F4F4F4" opacity="1.000000" stroke="none" 
	d="
M68.229996,65.286133 
	C67.952126,65.230080 67.785164,65.071960 67.618202,64.913849 
	C67.713448,64.826439 67.808693,64.739029 67.903938,64.651619 
	C68.049599,64.829102 68.195251,65.006584 68.229996,65.286133 
z"/>
<path fill="#FCFCFC" opacity="1.000000" stroke="none" 
	d="
M161.014404,113.021088 
	C161.026199,113.033951 161.058319,112.932098 161.016663,112.959885 
	C160.975006,112.987679 161.002625,113.008232 161.014404,113.021088 
z"/>
<path fill="#FCFCFC" opacity="1.000000" stroke="none" 
	d="
M162.014404,200.021103 
	C162.026199,200.033966 162.058334,199.932114 162.016663,199.959915 
	C161.975006,199.987717 162.002625,200.008240 162.014404,200.021103 
z"/>
<path fill="#FCFCFC" opacity="1.000000" stroke="none" 
	d="
M73.014420,156.021088 
	C73.026192,156.033951 73.058342,155.932098 73.016685,155.959900 
	C72.975029,155.987701 73.002647,156.008224 73.014420,156.021088 
z"/>
<path fill="#FCFCFC" opacity="1.000000" stroke="none" 
	d="
M71.014427,70.021088 
	C71.026207,70.033951 71.058342,69.932083 71.016693,69.959877 
	C70.975037,69.987671 71.002647,70.008224 71.014427,70.021088 
z"/>
</svg>